<?xml version="1.0" encoding="UTF-8" standalone="no"?>
<!-- Created with Inkscape (http://www.inkscape.org/) -->

<svg
   xmlns:dc="http://purl.org/dc/elements/1.1/"
   xmlns:cc="http://creativecommons.org/ns#"
   xmlns:rdf="http://www.w3.org/1999/02/22-rdf-syntax-ns#"
   xmlns:svg="http://www.w3.org/2000/svg"
   xmlns="http://www.w3.org/2000/svg"
   xmlns:sodipodi="http://sodipodi.sourceforge.net/DTD/sodipodi-0.dtd"
   xmlns:inkscape="http://www.inkscape.org/namespaces/inkscape"
   width="210mm"
   height="297mm"
   viewBox="0 0 210 297"
   version="1.1"
   id="svg8"
   inkscape:version="0.92.4 (5da689c313, 2019-01-14)"
   sodipodi:docname="operaciones_conjutos.svg">
  <defs
     id="defs2" />
  <sodipodi:namedview
     id="base"
     pagecolor="#ffffff"
     bordercolor="#666666"
     borderopacity="1.0"
     inkscape:pageopacity="0.0"
     inkscape:pageshadow="2"
     inkscape:zoom="2.8"
     inkscape:cx="116.23208"
     inkscape:cy="974.242"
     inkscape:document-units="mm"
     inkscape:current-layer="layer1"
     showgrid="false"
     inkscape:window-width="1280"
     inkscape:window-height="1002"
     inkscape:window-x="1432"
     inkscape:window-y="-8"
     inkscape:window-maximized="1" />
  <metadata
     id="metadata5">
    <rdf:RDF>
      <cc:Work
         rdf:about="">
        <dc:format>image/svg+xml</dc:format>
        <dc:type
           rdf:resource="http://purl.org/dc/dcmitype/StillImage" />
        <dc:title></dc:title>
      </cc:Work>
    </rdf:RDF>
  </metadata>
  <g
     inkscape:label="Capa 1"
     inkscape:groupmode="layer"
     id="layer1">
    <rect
       style="fill:#ffffff;fill-opacity:1;stroke:#000000;stroke-width:0.37373331;stroke-miterlimit:4;stroke-dasharray:none;stroke-dashoffset:0"
       id="rect4827"
       width="54.153107"
       height="80.016365"
       x="2.4528358"
       y="2.4861522" />
    <text
       xml:space="preserve"
       style="font-style:normal;font-variant:normal;font-weight:bold;font-stretch:normal;font-size:3.52777767px;line-height:1.25;font-family:sans-serif;-inkscape-font-specification:'sans-serif, Bold';font-variant-ligatures:normal;font-variant-caps:normal;font-variant-numeric:normal;font-feature-settings:normal;text-align:center;letter-spacing:0px;word-spacing:0px;writing-mode:lr-tb;text-anchor:middle;fill:#000000;fill-opacity:1;stroke:none;stroke-width:0.26458332"
       x="14.508531"
       y="7.4039698"
       id="text817"><tspan
         sodipodi:role="line"
         id="tspan815"
         x="14.508531"
         y="7.4039698"
         style="font-style:normal;font-variant:normal;font-weight:bold;font-stretch:normal;font-size:3.52777767px;font-family:sans-serif;-inkscape-font-specification:'sans-serif, Bold';font-variant-ligatures:normal;font-variant-caps:normal;font-variant-numeric:normal;font-feature-settings:normal;text-align:center;writing-mode:lr-tb;text-anchor:middle;stroke-width:0.26458332">Conjuntos</tspan></text>
    <rect
       style="fill:#ffffff;fill-opacity:0.96984923;stroke:#000000;stroke-width:0.26499999;stroke-miterlimit:4;stroke-dasharray:none;stroke-dashoffset:0"
       id="rect4655"
       width="23.434523"
       height="16.158482"
       x="4.8191972"
       y="9.4546146" />
    <path
       inkscape:connector-curvature="0"
       style="fill:#4e90d3;fill-opacity:1;stroke:#000000;stroke-width:0.21134552;stroke-miterlimit:4;stroke-dasharray:none;stroke-dashoffset:0"
       d="m 16.530499,11.940613 a 6.5941636,6.5941636 0 0 0 -0.532891,0.388231 6.5941636,6.5941636 0 0 0 -0.157436,0.131471 6.5941636,6.5941636 0 0 0 -0.340423,0.299622 6.5941636,6.5941636 0 0 0 -0.448816,0.482611 6.5941636,6.5941636 0 0 0 -0.398534,0.52506 6.5941636,6.5941636 0 0 0 -0.344133,0.562152 6.5941636,6.5941636 0 0 0 -0.284786,0.590178 6.5941636,6.5941636 0 0 0 -0.09479,0.259645 6.5941636,6.5941636 0 0 0 -0.132295,0.363091 6.5941636,6.5941636 0 0 0 -0.162382,0.637986 6.5941636,6.5941636 0 0 0 -0.0082,0.05481 6.5941636,6.5941636 0 0 0 -0.08985,0.598008 6.5941636,6.5941636 0 0 0 -0.03256,0.653234 6.5941636,6.5941636 0 0 0 0.02926,0.573692 6.5941636,6.5941636 0 0 0 0.03297,0.271185 6.5941636,6.5941636 0 0 0 0.06017,0.395238 6.5941636,6.5941636 0 0 0 0.05193,0.229559 6.5941636,6.5941636 0 0 0 0.106331,0.416257 6.5941636,6.5941636 0 0 0 0.06553,0.197413 6.5941636,6.5941636 0 0 0 0.161144,0.438511 6.5941636,6.5941636 0 0 0 0.06471,0.145072 6.5941636,6.5941636 0 0 0 0.221728,0.457882 6.5941636,6.5941636 0 0 0 0.06471,0.112101 6.5941636,6.5941636 0 0 0 0.283137,0.460767 6.5941636,6.5941636 0 0 0 0.0544,0.07625 6.5941636,6.5941636 0 0 0 0.346606,0.454998 6.5941636,6.5941636 0 0 0 0.0474,0.05399 6.5941636,6.5941636 0 0 0 0.405129,0.433567 6.5941636,6.5941636 0 0 0 0.0375,0.03503 6.5941636,6.5941636 0 0 0 0.46324,0.405953 6.5941636,6.5941636 0 0 0 0.01937,0.01484 6.5941636,6.5941636 0 0 0 0.520939,0.371334 6.5941636,6.5941636 0 0 0 0.0029,0.0021 6.5941636,6.5941636 0 0 0 0.04616,-0.03338 6.5941636,6.5941636 0 0 0 0.489616,-0.350315 6.5941636,6.5941636 0 0 0 0.494975,-0.435627 6.5941636,6.5941636 0 0 0 0.448403,-0.481786 6.5941636,6.5941636 0 0 0 0.396474,-0.521351 6.5941636,6.5941636 0 0 0 0.187521,-0.306216 6.5941636,6.5941636 0 0 0 0.257585,-0.464064 6.5941636,6.5941636 0 0 0 0.187934,-0.389881 6.5941636,6.5941636 0 0 0 0.224613,-0.615729 6.5941636,6.5941636 0 0 0 0.06842,-0.267888 6.5941636,6.5941636 0 0 0 0.0952,-0.374631 6.5941636,6.5941636 0 0 0 0.0041,-0.02761 6.5941636,6.5941636 0 0 0 0.09355,-0.622324 6.5941636,6.5941636 0 0 0 0.03297,-0.654883 6.5941636,6.5941636 0 0 0 -0.02926,-0.567923 6.5941636,6.5941636 0 0 0 -0.03503,-0.289319 6.5941636,6.5941636 0 0 0 -0.0577,-0.379576 6.5941636,6.5941636 0 0 0 -0.05317,-0.23739 6.5941636,6.5941636 0 0 0 -0.105506,-0.410899 6.5941636,6.5941636 0 0 0 -0.06759,-0.203182 6.5941636,6.5941636 0 0 0 -0.157847,-0.430682 6.5941636,6.5941636 0 0 0 -0.07047,-0.156611 6.5941636,6.5941636 0 0 0 -0.215959,-0.446343 6.5941636,6.5941636 0 0 0 -0.06924,-0.121167 6.5941636,6.5941636 0 0 0 -0.279016,-0.452937 6.5941636,6.5941636 0 0 0 -0.06182,-0.08655 6.5941636,6.5941636 0 0 0 -0.337951,-0.44387 6.5941636,6.5941636 0 0 0 -0.0544,-0.06141 6.5941636,6.5941636 0 0 0 -0.400595,-0.429033 6.5941636,6.5941636 0 0 0 -0.03668,-0.03421 6.5941636,6.5941636 0 0 0 -0.461592,-0.404717 6.5941636,6.5941636 0 0 0 -0.02555,-0.01978 6.5941636,6.5941636 0 0 0 -0.515169,-0.367625 6.5941636,6.5941636 0 0 0 -0.0049,-0.0029 z"
       id="path4647" />
    <path
       inkscape:connector-curvature="0"
       style="fill:#4e90d3;fill-opacity:1;stroke:#000000;stroke-width:0.21134552;stroke-miterlimit:4;stroke-dasharray:none;stroke-dashoffset:0"
       d="m 12.975833,10.892553 a 6.5941636,6.5941636 0 0 0 -6.594164,6.594163 6.5941636,6.5941636 0 0 0 6.594164,6.594164 6.5941636,6.5941636 0 0 0 3.566618,-1.048472 6.5941636,6.5941636 0 0 1 -0.0029,-0.0021 6.5941636,6.5941636 0 0 1 -0.520939,-0.371334 6.5941636,6.5941636 0 0 1 -0.01937,-0.01484 6.5941636,6.5941636 0 0 1 -0.46324,-0.405954 6.5941636,6.5941636 0 0 1 -0.0375,-0.03503 6.5941636,6.5941636 0 0 1 -0.405129,-0.433566 6.5941636,6.5941636 0 0 1 -0.0474,-0.05399 6.5941636,6.5941636 0 0 1 -0.346605,-0.454997 6.5941636,6.5941636 0 0 1 -0.0544,-0.07625 6.5941636,6.5941636 0 0 1 -0.283137,-0.460767 6.5941636,6.5941636 0 0 1 -0.06471,-0.112101 6.5941636,6.5941636 0 0 1 -0.221729,-0.457882 6.5941636,6.5941636 0 0 1 -0.06471,-0.145072 6.5941636,6.5941636 0 0 1 -0.161145,-0.438512 6.5941636,6.5941636 0 0 1 -0.06553,-0.197413 6.5941636,6.5941636 0 0 1 -0.10633,-0.416256 6.5941636,6.5941636 0 0 1 -0.05193,-0.22956 6.5941636,6.5941636 0 0 1 -0.06017,-0.395237 6.5941636,6.5941636 0 0 1 -0.03297,-0.271185 6.5941636,6.5941636 0 0 1 -0.02926,-0.573692 6.5941636,6.5941636 0 0 1 0.03256,-0.653235 6.5941636,6.5941636 0 0 1 0.08985,-0.598008 6.5941636,6.5941636 0 0 1 0.0082,-0.05481 6.5941636,6.5941636 0 0 1 0.162381,-0.637985 6.5941636,6.5941636 0 0 1 0.132295,-0.363091 6.5941636,6.5941636 0 0 1 0.09479,-0.259646 6.5941636,6.5941636 0 0 1 0.284786,-0.590177 6.5941636,6.5941636 0 0 1 0.344133,-0.562153 6.5941636,6.5941636 0 0 1 0.398535,-0.52506 6.5941636,6.5941636 0 0 1 0.448815,-0.48261 6.5941636,6.5941636 0 0 1 0.340423,-0.299623 6.5941636,6.5941636 0 0 1 0.157436,-0.131471 6.5941636,6.5941636 0 0 1 0.532891,-0.388231 6.5941636,6.5941636 0 0 0 -3.554666,-1.04806 z"
       id="path819" />
    <path
       inkscape:connector-curvature="0"
       style="fill:#4e90d3;fill-opacity:1;stroke:#000000;stroke-width:0.21134552;stroke-miterlimit:4;stroke-dasharray:none;stroke-dashoffset:0"
       d="m 13.503366,17.486716 a 6.5941636,6.5941636 0 0 1 0.03256,-0.653234 6.5941636,6.5941636 0 0 1 0.08985,-0.598008 6.5941636,6.5941636 0 0 0 -0.122404,1.251242 z"
       id="path4644" />
    <path
       inkscape:connector-curvature="0"
       style="fill:#4e90d3;fill-opacity:1;stroke:#000000;stroke-width:0.21134552;stroke-miterlimit:4;stroke-dasharray:none;stroke-dashoffset:0"
       d="m 20.097529,10.892553 a 6.5941636,6.5941636 0 0 0 -3.56703,1.04806 6.5941636,6.5941636 0 0 1 0.0016,8.22e-4 6.5941636,6.5941636 0 0 1 0.5366,0.382874 6.5941636,6.5941636 0 0 1 0.495386,0.434391 6.5941636,6.5941636 0 0 1 0.450052,0.481786 6.5941636,6.5941636 0 0 1 0.399359,0.524236 6.5941636,6.5941636 0 0 1 0.345369,0.56174 6.5941636,6.5941636 0 0 1 0.287259,0.593062 6.5941636,6.5941636 0 0 1 0.227086,0.619028 6.5941636,6.5941636 0 0 1 0.163618,0.638397 6.5941636,6.5941636 0 0 1 0.09932,0.651586 6.5941636,6.5941636 0 0 1 0.0338,0.65818 6.5941636,6.5941636 0 0 1 -0.03256,0.653234 6.5941636,6.5941636 0 0 1 -0.09809,0.651586 6.5941636,6.5941636 0 0 1 -0.162382,0.638809 6.5941636,6.5941636 0 0 1 -0.22585,0.61944 6.5941636,6.5941636 0 0 1 -0.286022,0.593886 6.5941636,6.5941636 0 0 1 -0.344133,0.562153 6.5941636,6.5941636 0 0 1 -0.398946,0.52506 6.5941636,6.5941636 0 0 1 -0.448816,0.482198 6.5941636,6.5941636 0 0 1 -0.494974,0.435627 6.5941636,6.5941636 0 0 1 -0.535776,0.383698 6.5941636,6.5941636 0 0 0 3.555079,1.048472 6.5941636,6.5941636 0 0 0 6.594164,-6.594163 6.5941636,6.5941636 0 0 0 -6.594164,-6.594164 z"
       id="path819-7" />
    <rect
       style="fill:#ffffff;fill-opacity:0.96984923;stroke:#000000;stroke-width:0.26499999;stroke-miterlimit:4;stroke-dasharray:none;stroke-dashoffset:0"
       id="rect4655-8"
       width="23.434523"
       height="16.158482"
       x="4.8191972"
       y="27.636843" />
    <path
       inkscape:connector-curvature="0"
       style="fill:#4e90d3;fill-opacity:1;stroke:#000000;stroke-width:0.21134552;stroke-miterlimit:4;stroke-dasharray:none;stroke-dashoffset:0"
       d="m 16.530499,30.122839 a 6.5941636,6.5941636 0 0 0 -0.532891,0.388232 6.5941636,6.5941636 0 0 0 -0.157436,0.131471 6.5941636,6.5941636 0 0 0 -0.340423,0.299622 6.5941636,6.5941636 0 0 0 -0.448816,0.48261 6.5941636,6.5941636 0 0 0 -0.398534,0.525061 6.5941636,6.5941636 0 0 0 -0.344133,0.562152 6.5941636,6.5941636 0 0 0 -0.284786,0.590178 6.5941636,6.5941636 0 0 0 -0.09479,0.259645 6.5941636,6.5941636 0 0 0 -0.132295,0.363091 6.5941636,6.5941636 0 0 0 -0.162382,0.637985 6.5941636,6.5941636 0 0 0 -0.0082,0.05481 6.5941636,6.5941636 0 0 0 -0.08985,0.598009 6.5941636,6.5941636 0 0 0 -0.03256,0.653234 6.5941636,6.5941636 0 0 0 0.02926,0.573692 6.5941636,6.5941636 0 0 0 0.03297,0.271185 6.5941636,6.5941636 0 0 0 0.06017,0.395238 6.5941636,6.5941636 0 0 0 0.05193,0.229559 6.5941636,6.5941636 0 0 0 0.106331,0.416257 6.5941636,6.5941636 0 0 0 0.06553,0.197412 6.5941636,6.5941636 0 0 0 0.161144,0.438512 6.5941636,6.5941636 0 0 0 0.06471,0.145072 6.5941636,6.5941636 0 0 0 0.221728,0.457882 6.5941636,6.5941636 0 0 0 0.06471,0.112101 6.5941636,6.5941636 0 0 0 0.283137,0.460767 6.5941636,6.5941636 0 0 0 0.0544,0.07625 6.5941636,6.5941636 0 0 0 0.346606,0.454997 6.5941636,6.5941636 0 0 0 0.0474,0.05399 6.5941636,6.5941636 0 0 0 0.405129,0.433566 6.5941636,6.5941636 0 0 0 0.0375,0.03503 6.5941636,6.5941636 0 0 0 0.46324,0.405953 6.5941636,6.5941636 0 0 0 0.01937,0.01484 6.5941636,6.5941636 0 0 0 0.520939,0.371334 6.5941636,6.5941636 0 0 0 0.0029,0.0021 6.5941636,6.5941636 0 0 0 0.04616,-0.03338 6.5941636,6.5941636 0 0 0 0.489616,-0.350315 6.5941636,6.5941636 0 0 0 0.494975,-0.435627 6.5941636,6.5941636 0 0 0 0.448403,-0.481786 6.5941636,6.5941636 0 0 0 0.396474,-0.521351 6.5941636,6.5941636 0 0 0 0.187521,-0.306217 6.5941636,6.5941636 0 0 0 0.257585,-0.464064 6.5941636,6.5941636 0 0 0 0.187933,-0.38988 6.5941636,6.5941636 0 0 0 0.224614,-0.61573 6.5941636,6.5941636 0 0 0 0.06842,-0.267888 6.5941636,6.5941636 0 0 0 0.0952,-0.374631 6.5941636,6.5941636 0 0 0 0.0041,-0.02761 6.5941636,6.5941636 0 0 0 0.09355,-0.622324 6.5941636,6.5941636 0 0 0 0.03297,-0.654883 6.5941636,6.5941636 0 0 0 -0.02926,-0.567922 6.5941636,6.5941636 0 0 0 -0.03503,-0.289319 6.5941636,6.5941636 0 0 0 -0.0577,-0.379576 6.5941636,6.5941636 0 0 0 -0.05317,-0.23739 6.5941636,6.5941636 0 0 0 -0.105506,-0.410899 6.5941636,6.5941636 0 0 0 -0.06759,-0.203183 6.5941636,6.5941636 0 0 0 -0.157848,-0.430681 6.5941636,6.5941636 0 0 0 -0.07047,-0.156611 6.5941636,6.5941636 0 0 0 -0.215959,-0.446343 6.5941636,6.5941636 0 0 0 -0.06924,-0.121168 6.5941636,6.5941636 0 0 0 -0.279016,-0.452936 6.5941636,6.5941636 0 0 0 -0.06182,-0.08655 6.5941636,6.5941636 0 0 0 -0.337951,-0.443869 6.5941636,6.5941636 0 0 0 -0.0544,-0.06141 6.5941636,6.5941636 0 0 0 -0.400595,-0.429032 6.5941636,6.5941636 0 0 0 -0.03668,-0.03421 6.5941636,6.5941636 0 0 0 -0.461592,-0.404717 6.5941636,6.5941636 0 0 0 -0.02555,-0.01978 6.5941636,6.5941636 0 0 0 -0.515169,-0.367624 6.5941636,6.5941636 0 0 0 -0.0049,-0.0029 z"
       id="path4647-8" />
    <path
       inkscape:connector-curvature="0"
       style="fill:#ffffff;fill-opacity:1;stroke:#000000;stroke-width:0.21134552;stroke-miterlimit:4;stroke-dasharray:none;stroke-dashoffset:0"
       d="m 12.975833,29.074779 a 6.5941636,6.5941636 0 0 0 -6.5941641,6.594164 6.5941636,6.5941636 0 0 0 6.5941641,6.594163 6.5941636,6.5941636 0 0 0 3.566618,-1.048472 6.5941636,6.5941636 0 0 1 -0.0029,-0.0021 6.5941636,6.5941636 0 0 1 -0.520939,-0.371333 6.5941636,6.5941636 0 0 1 -0.01937,-0.01484 6.5941636,6.5941636 0 0 1 -0.46324,-0.405953 6.5941636,6.5941636 0 0 1 -0.0375,-0.03503 6.5941636,6.5941636 0 0 1 -0.405129,-0.433567 6.5941636,6.5941636 0 0 1 -0.0474,-0.05399 6.5941636,6.5941636 0 0 1 -0.346606,-0.454998 6.5941636,6.5941636 0 0 1 -0.0544,-0.07625 6.5941636,6.5941636 0 0 1 -0.283137,-0.460767 6.5941636,6.5941636 0 0 1 -0.06471,-0.1121 6.5941636,6.5941636 0 0 1 -0.221728,-0.457883 6.5941636,6.5941636 0 0 1 -0.06471,-0.145071 6.5941636,6.5941636 0 0 1 -0.161144,-0.438512 6.5941636,6.5941636 0 0 1 -0.06553,-0.197413 6.5941636,6.5941636 0 0 1 -0.106331,-0.416257 6.5941636,6.5941636 0 0 1 -0.05193,-0.229559 6.5941636,6.5941636 0 0 1 -0.06017,-0.395238 6.5941636,6.5941636 0 0 1 -0.03297,-0.271185 6.5941636,6.5941636 0 0 1 -0.02926,-0.573692 6.5941636,6.5941636 0 0 1 0.03256,-0.653234 6.5941636,6.5941636 0 0 1 0.08985,-0.598008 6.5941636,6.5941636 0 0 1 0.0082,-0.05481 6.5941636,6.5941636 0 0 1 0.162381,-0.637986 6.5941636,6.5941636 0 0 1 0.132295,-0.363091 6.5941636,6.5941636 0 0 1 0.09479,-0.259645 6.5941636,6.5941636 0 0 1 0.284786,-0.590177 6.5941636,6.5941636 0 0 1 0.344133,-0.562153 6.5941636,6.5941636 0 0 1 0.398534,-0.52506 6.5941636,6.5941636 0 0 1 0.448816,-0.482611 6.5941636,6.5941636 0 0 1 0.340423,-0.299622 6.5941636,6.5941636 0 0 1 0.157436,-0.131471 6.5941636,6.5941636 0 0 1 0.532891,-0.388231 6.5941636,6.5941636 0 0 0 -3.554666,-1.04806 z"
       id="path819-8" />
    <path
       inkscape:connector-curvature="0"
       style="fill:#1f3cca;fill-opacity:0.48743717;stroke:#000000;stroke-width:0.21134552;stroke-miterlimit:4;stroke-dasharray:none;stroke-dashoffset:0"
       d="m 13.503366,35.668943 a 6.5941636,6.5941636 0 0 1 0.03256,-0.653234 6.5941636,6.5941636 0 0 1 0.08985,-0.598009 6.5941636,6.5941636 0 0 0 -0.122404,1.251243 z"
       id="path4644-4" />
    <path
       inkscape:connector-curvature="0"
       style="fill:#ffffff;fill-opacity:1;stroke:#000000;stroke-width:0.21134552;stroke-miterlimit:4;stroke-dasharray:none;stroke-dashoffset:0"
       d="m 20.097529,29.074779 a 6.5941636,6.5941636 0 0 0 -3.56703,1.04806 6.5941636,6.5941636 0 0 1 0.0016,8.23e-4 6.5941636,6.5941636 0 0 1 0.5366,0.382874 6.5941636,6.5941636 0 0 1 0.495386,0.43439 6.5941636,6.5941636 0 0 1 0.450052,0.481786 6.5941636,6.5941636 0 0 1 0.399359,0.524236 6.5941636,6.5941636 0 0 1 0.345369,0.561741 6.5941636,6.5941636 0 0 1 0.287259,0.593062 6.5941636,6.5941636 0 0 1 0.227086,0.619027 6.5941636,6.5941636 0 0 1 0.163618,0.638398 6.5941636,6.5941636 0 0 1 0.09932,0.651586 6.5941636,6.5941636 0 0 1 0.0338,0.65818 6.5941636,6.5941636 0 0 1 -0.03256,0.653234 6.5941636,6.5941636 0 0 1 -0.09809,0.651586 6.5941636,6.5941636 0 0 1 -0.162382,0.638809 6.5941636,6.5941636 0 0 1 -0.22585,0.619439 6.5941636,6.5941636 0 0 1 -0.286022,0.593887 6.5941636,6.5941636 0 0 1 -0.344133,0.562153 6.5941636,6.5941636 0 0 1 -0.398947,0.52506 6.5941636,6.5941636 0 0 1 -0.448815,0.482198 6.5941636,6.5941636 0 0 1 -0.494974,0.435627 6.5941636,6.5941636 0 0 1 -0.535776,0.383698 6.5941636,6.5941636 0 0 0 3.555079,1.048472 6.5941636,6.5941636 0 0 0 6.594164,-6.594163 6.5941636,6.5941636 0 0 0 -6.594164,-6.594164 z"
       id="path819-7-2" />
    <rect
       style="fill:#ffffff;fill-opacity:0.96984923;stroke:#000000;stroke-width:0.26499999;stroke-miterlimit:4;stroke-dasharray:none;stroke-dashoffset:0"
       id="rect4655-1"
       width="23.434523"
       height="16.158482"
       x="4.8191972"
       y="45.819077" />
    <path
       inkscape:connector-curvature="0"
       style="fill:#ffffff;fill-opacity:1;stroke:#000000;stroke-width:0.21134552;stroke-miterlimit:4;stroke-dasharray:none;stroke-dashoffset:0"
       d="m 16.530499,48.305071 a 6.5941636,6.5941636 0 0 0 -0.532891,0.388232 6.5941636,6.5941636 0 0 0 -0.157435,0.131471 6.5941636,6.5941636 0 0 0 -0.340424,0.299622 6.5941636,6.5941636 0 0 0 -0.448815,0.48261 6.5941636,6.5941636 0 0 0 -0.398535,0.525061 6.5941636,6.5941636 0 0 0 -0.344133,0.562152 6.5941636,6.5941636 0 0 0 -0.284785,0.590178 6.5941636,6.5941636 0 0 0 -0.09479,0.259645 6.5941636,6.5941636 0 0 0 -0.132296,0.363091 6.5941636,6.5941636 0 0 0 -0.162381,0.637985 6.5941636,6.5941636 0 0 0 -0.0082,0.05481 6.5941636,6.5941636 0 0 0 -0.08985,0.598009 6.5941636,6.5941636 0 0 0 -0.03256,0.653234 6.5941636,6.5941636 0 0 0 0.02926,0.573692 6.5941636,6.5941636 0 0 0 0.03297,0.271185 6.5941636,6.5941636 0 0 0 0.06017,0.395238 6.5941636,6.5941636 0 0 0 0.05193,0.229559 6.5941636,6.5941636 0 0 0 0.106331,0.416257 6.5941636,6.5941636 0 0 0 0.06553,0.197412 6.5941636,6.5941636 0 0 0 0.161145,0.438512 6.5941636,6.5941636 0 0 0 0.06471,0.145072 6.5941636,6.5941636 0 0 0 0.221729,0.457882 6.5941636,6.5941636 0 0 0 0.0647,0.112101 6.5941636,6.5941636 0 0 0 0.283137,0.460767 6.5941636,6.5941636 0 0 0 0.0544,0.07625 6.5941636,6.5941636 0 0 0 0.346605,0.454997 6.5941636,6.5941636 0 0 0 0.0474,0.05399 6.5941636,6.5941636 0 0 0 0.405129,0.433566 6.5941636,6.5941636 0 0 0 0.0375,0.03503 6.5941636,6.5941636 0 0 0 0.46324,0.405953 6.5941636,6.5941636 0 0 0 0.01937,0.01484 6.5941636,6.5941636 0 0 0 0.520939,0.371334 6.5941636,6.5941636 0 0 0 0.0029,0.0021 6.5941636,6.5941636 0 0 0 0.04616,-0.03338 6.5941636,6.5941636 0 0 0 0.489617,-0.350315 6.5941636,6.5941636 0 0 0 0.494974,-0.435627 6.5941636,6.5941636 0 0 0 0.448403,-0.481786 6.5941636,6.5941636 0 0 0 0.396474,-0.521351 6.5941636,6.5941636 0 0 0 0.187522,-0.306217 6.5941636,6.5941636 0 0 0 0.257584,-0.464064 6.5941636,6.5941636 0 0 0 0.187934,-0.38988 6.5941636,6.5941636 0 0 0 0.224614,-0.61573 6.5941636,6.5941636 0 0 0 0.06841,-0.267888 6.5941636,6.5941636 0 0 0 0.0952,-0.374631 6.5941636,6.5941636 0 0 0 0.0041,-0.02761 6.5941636,6.5941636 0 0 0 0.09355,-0.622324 6.5941636,6.5941636 0 0 0 0.03297,-0.654883 6.5941636,6.5941636 0 0 0 -0.02926,-0.567922 6.5941636,6.5941636 0 0 0 -0.03503,-0.289319 6.5941636,6.5941636 0 0 0 -0.0577,-0.379576 6.5941636,6.5941636 0 0 0 -0.05316,-0.23739 6.5941636,6.5941636 0 0 0 -0.105507,-0.410899 6.5941636,6.5941636 0 0 0 -0.06759,-0.203183 6.5941636,6.5941636 0 0 0 -0.157848,-0.430681 6.5941636,6.5941636 0 0 0 -0.07047,-0.156611 6.5941636,6.5941636 0 0 0 -0.215959,-0.446343 6.5941636,6.5941636 0 0 0 -0.06924,-0.121168 6.5941636,6.5941636 0 0 0 -0.279015,-0.452936 6.5941636,6.5941636 0 0 0 -0.06182,-0.08655 6.5941636,6.5941636 0 0 0 -0.337951,-0.443869 6.5941636,6.5941636 0 0 0 -0.0544,-0.06141 6.5941636,6.5941636 0 0 0 -0.400596,-0.429032 6.5941636,6.5941636 0 0 0 -0.03668,-0.03421 6.5941636,6.5941636 0 0 0 -0.461591,-0.404717 6.5941636,6.5941636 0 0 0 -0.02555,-0.01978 6.5941636,6.5941636 0 0 0 -0.515169,-0.367624 6.5941636,6.5941636 0 0 0 -0.0049,-0.0029 z"
       id="path4647-7" />
    <path
       inkscape:connector-curvature="0"
       style="fill:#4e90d3;fill-opacity:1;stroke:#000000;stroke-width:0.21134552;stroke-miterlimit:4;stroke-dasharray:none;stroke-dashoffset:0"
       d="m 12.975833,47.257011 a 6.5941636,6.5941636 0 0 0 -6.5941637,6.594164 6.5941636,6.5941636 0 0 0 6.5941637,6.594163 6.5941636,6.5941636 0 0 0 3.566618,-1.048472 6.5941636,6.5941636 0 0 1 -0.0029,-0.0021 6.5941636,6.5941636 0 0 1 -0.520939,-0.371333 6.5941636,6.5941636 0 0 1 -0.01937,-0.01484 6.5941636,6.5941636 0 0 1 -0.46324,-0.405953 6.5941636,6.5941636 0 0 1 -0.0375,-0.03503 6.5941636,6.5941636 0 0 1 -0.405129,-0.433567 6.5941636,6.5941636 0 0 1 -0.04739,-0.05399 6.5941636,6.5941636 0 0 1 -0.346606,-0.454998 6.5941636,6.5941636 0 0 1 -0.0544,-0.07625 6.5941636,6.5941636 0 0 1 -0.283137,-0.460767 6.5941636,6.5941636 0 0 1 -0.06471,-0.1121 6.5941636,6.5941636 0 0 1 -0.221729,-0.457883 6.5941636,6.5941636 0 0 1 -0.06471,-0.145071 6.5941636,6.5941636 0 0 1 -0.161145,-0.438512 6.5941636,6.5941636 0 0 1 -0.06553,-0.197413 6.5941636,6.5941636 0 0 1 -0.106331,-0.416257 6.5941636,6.5941636 0 0 1 -0.05193,-0.229559 6.5941636,6.5941636 0 0 1 -0.06017,-0.395238 6.5941636,6.5941636 0 0 1 -0.03297,-0.271185 6.5941636,6.5941636 0 0 1 -0.02926,-0.573692 6.5941636,6.5941636 0 0 1 0.03256,-0.653234 6.5941636,6.5941636 0 0 1 0.08985,-0.598008 6.5941636,6.5941636 0 0 1 0.0082,-0.05481 6.5941636,6.5941636 0 0 1 0.162381,-0.637986 6.5941636,6.5941636 0 0 1 0.132296,-0.363091 6.5941636,6.5941636 0 0 1 0.09479,-0.259645 6.5941636,6.5941636 0 0 1 0.284785,-0.590177 6.5941636,6.5941636 0 0 1 0.344133,-0.562153 6.5941636,6.5941636 0 0 1 0.398535,-0.52506 6.5941636,6.5941636 0 0 1 0.448815,-0.482611 6.5941636,6.5941636 0 0 1 0.340424,-0.299622 6.5941636,6.5941636 0 0 1 0.157435,-0.131471 6.5941636,6.5941636 0 0 1 0.532891,-0.388231 6.5941636,6.5941636 0 0 0 -3.554666,-1.04806 z"
       id="path819-6" />
    <path
       inkscape:connector-curvature="0"
       style="fill:#1f3cca;fill-opacity:0.48743717;stroke:#000000;stroke-width:0.21134552;stroke-miterlimit:4;stroke-dasharray:none;stroke-dashoffset:0"
       d="m 13.503366,53.851175 a 6.5941636,6.5941636 0 0 1 0.03256,-0.653234 6.5941636,6.5941636 0 0 1 0.08985,-0.598009 6.5941636,6.5941636 0 0 0 -0.122404,1.251243 z"
       id="path4644-48" />
    <path
       inkscape:connector-curvature="0"
       style="fill:#ffffff;fill-opacity:1;stroke:#000000;stroke-width:0.21134552;stroke-miterlimit:4;stroke-dasharray:none;stroke-dashoffset:0"
       d="m 20.097529,47.257011 a 6.5941636,6.5941636 0 0 0 -3.56703,1.04806 6.5941636,6.5941636 0 0 1 0.0016,8.23e-4 6.5941636,6.5941636 0 0 1 0.5366,0.382874 6.5941636,6.5941636 0 0 1 0.495387,0.43439 6.5941636,6.5941636 0 0 1 0.450051,0.481786 6.5941636,6.5941636 0 0 1 0.399359,0.524236 6.5941636,6.5941636 0 0 1 0.34537,0.561741 6.5941636,6.5941636 0 0 1 0.287258,0.593062 6.5941636,6.5941636 0 0 1 0.227087,0.619027 6.5941636,6.5941636 0 0 1 0.163617,0.638398 6.5941636,6.5941636 0 0 1 0.09933,0.651586 6.5941636,6.5941636 0 0 1 0.03379,0.65818 6.5941636,6.5941636 0 0 1 -0.03256,0.653234 6.5941636,6.5941636 0 0 1 -0.09809,0.651586 6.5941636,6.5941636 0 0 1 -0.162381,0.638809 6.5941636,6.5941636 0 0 1 -0.225851,0.619439 6.5941636,6.5941636 0 0 1 -0.286021,0.593887 6.5941636,6.5941636 0 0 1 -0.344133,0.562153 6.5941636,6.5941636 0 0 1 -0.398947,0.52506 6.5941636,6.5941636 0 0 1 -0.448815,0.482198 6.5941636,6.5941636 0 0 1 -0.494975,0.435627 6.5941636,6.5941636 0 0 1 -0.535776,0.383698 6.5941636,6.5941636 0 0 0 3.555079,1.048472 6.5941636,6.5941636 0 0 0 6.594165,-6.594163 6.5941636,6.5941636 0 0 0 -6.594165,-6.594164 z"
       id="path819-7-6" />
    <rect
       style="fill:#4e90d3;fill-opacity:1;stroke:#000000;stroke-width:0.26499999;stroke-miterlimit:4;stroke-dasharray:none;stroke-dashoffset:0"
       id="rect4655-8-6"
       width="23.434523"
       height="16.158482"
       x="4.8191972"
       y="64.001305" />
    <path
       inkscape:connector-curvature="0"
       style="fill:#ffffff;fill-opacity:1;stroke:#000000;stroke-width:0.21134552;stroke-miterlimit:4;stroke-dasharray:none;stroke-dashoffset:0"
       d="m 16.530498,66.487298 a 6.5941636,6.5941636 0 0 0 -0.532891,0.388232 6.5941636,6.5941636 0 0 0 -0.157435,0.131471 6.5941636,6.5941636 0 0 0 -0.340424,0.299622 6.5941636,6.5941636 0 0 0 -0.448815,0.48261 6.5941636,6.5941636 0 0 0 -0.398535,0.525061 6.5941636,6.5941636 0 0 0 -0.344133,0.562152 6.5941636,6.5941636 0 0 0 -0.284785,0.590178 6.5941636,6.5941636 0 0 0 -0.09479,0.259645 6.5941636,6.5941636 0 0 0 -0.132296,0.363091 6.5941636,6.5941636 0 0 0 -0.162381,0.637985 6.5941636,6.5941636 0 0 0 -0.0082,0.05481 6.5941636,6.5941636 0 0 0 -0.08985,0.598009 6.5941636,6.5941636 0 0 0 -0.03256,0.653234 6.5941636,6.5941636 0 0 0 0.02926,0.573692 6.5941636,6.5941636 0 0 0 0.03297,0.271185 6.5941636,6.5941636 0 0 0 0.06017,0.395238 6.5941636,6.5941636 0 0 0 0.05193,0.229559 6.5941636,6.5941636 0 0 0 0.106331,0.416257 6.5941636,6.5941636 0 0 0 0.06553,0.197412 6.5941636,6.5941636 0 0 0 0.161145,0.438512 6.5941636,6.5941636 0 0 0 0.06471,0.145072 6.5941636,6.5941636 0 0 0 0.221729,0.457882 6.5941636,6.5941636 0 0 0 0.06471,0.112101 6.5941636,6.5941636 0 0 0 0.283137,0.460767 6.5941636,6.5941636 0 0 0 0.0544,0.07625 6.5941636,6.5941636 0 0 0 0.346605,0.454997 6.5941636,6.5941636 0 0 0 0.0474,0.05399 6.5941636,6.5941636 0 0 0 0.405129,0.433566 6.5941636,6.5941636 0 0 0 0.0375,0.03503 6.5941636,6.5941636 0 0 0 0.46324,0.405953 6.5941636,6.5941636 0 0 0 0.01937,0.01484 6.5941636,6.5941636 0 0 0 0.520939,0.371334 6.5941636,6.5941636 0 0 0 0.0029,0.0021 6.5941636,6.5941636 0 0 0 0.04616,-0.03338 6.5941636,6.5941636 0 0 0 0.489617,-0.350315 6.5941636,6.5941636 0 0 0 0.494974,-0.435627 6.5941636,6.5941636 0 0 0 0.448403,-0.481786 6.5941636,6.5941636 0 0 0 0.396474,-0.521351 6.5941636,6.5941636 0 0 0 0.187522,-0.306217 6.5941636,6.5941636 0 0 0 0.257584,-0.464064 6.5941636,6.5941636 0 0 0 0.187934,-0.38988 6.5941636,6.5941636 0 0 0 0.224614,-0.61573 6.5941636,6.5941636 0 0 0 0.06841,-0.267888 6.5941636,6.5941636 0 0 0 0.0952,-0.374631 6.5941636,6.5941636 0 0 0 0.0041,-0.02761 6.5941636,6.5941636 0 0 0 0.09356,-0.622324 6.5941636,6.5941636 0 0 0 0.03297,-0.654883 6.5941636,6.5941636 0 0 0 -0.02926,-0.567922 6.5941636,6.5941636 0 0 0 -0.03503,-0.289319 6.5941636,6.5941636 0 0 0 -0.0577,-0.379576 6.5941636,6.5941636 0 0 0 -0.05316,-0.23739 6.5941636,6.5941636 0 0 0 -0.105507,-0.410899 6.5941636,6.5941636 0 0 0 -0.06759,-0.203183 6.5941636,6.5941636 0 0 0 -0.157848,-0.430681 6.5941636,6.5941636 0 0 0 -0.07047,-0.156611 6.5941636,6.5941636 0 0 0 -0.215959,-0.446343 6.5941636,6.5941636 0 0 0 -0.06924,-0.121168 6.5941636,6.5941636 0 0 0 -0.279015,-0.452936 6.5941636,6.5941636 0 0 0 -0.06182,-0.08655 6.5941636,6.5941636 0 0 0 -0.337951,-0.443869 6.5941636,6.5941636 0 0 0 -0.0544,-0.06141 6.5941636,6.5941636 0 0 0 -0.400596,-0.429032 6.5941636,6.5941636 0 0 0 -0.03668,-0.03421 6.5941636,6.5941636 0 0 0 -0.461591,-0.404717 6.5941636,6.5941636 0 0 0 -0.02555,-0.01978 6.5941636,6.5941636 0 0 0 -0.515169,-0.367624 6.5941636,6.5941636 0 0 0 -0.0049,-0.0029 z"
       id="path4647-8-9" />
    <path
       inkscape:connector-curvature="0"
       style="fill:#ffffff;fill-opacity:1;stroke:#000000;stroke-width:0.21134552;stroke-miterlimit:4;stroke-dasharray:none;stroke-dashoffset:0"
       d="m 12.975832,65.439238 a 6.5941636,6.5941636 0 0 0 -6.5941637,6.594164 6.5941636,6.5941636 0 0 0 6.5941637,6.594163 6.5941636,6.5941636 0 0 0 3.566618,-1.048472 6.5941636,6.5941636 0 0 1 -0.0029,-0.0021 6.5941636,6.5941636 0 0 1 -0.520939,-0.371333 6.5941636,6.5941636 0 0 1 -0.01937,-0.01484 6.5941636,6.5941636 0 0 1 -0.46324,-0.405953 6.5941636,6.5941636 0 0 1 -0.0375,-0.03503 6.5941636,6.5941636 0 0 1 -0.405129,-0.433567 6.5941636,6.5941636 0 0 1 -0.04739,-0.05399 6.5941636,6.5941636 0 0 1 -0.346606,-0.454998 6.5941636,6.5941636 0 0 1 -0.0544,-0.07625 6.5941636,6.5941636 0 0 1 -0.283137,-0.460767 6.5941636,6.5941636 0 0 1 -0.06471,-0.1121 6.5941636,6.5941636 0 0 1 -0.221729,-0.457883 6.5941636,6.5941636 0 0 1 -0.06471,-0.145071 6.5941636,6.5941636 0 0 1 -0.161145,-0.438512 6.5941636,6.5941636 0 0 1 -0.06553,-0.197413 6.5941636,6.5941636 0 0 1 -0.106331,-0.416257 6.5941636,6.5941636 0 0 1 -0.05193,-0.229559 6.5941636,6.5941636 0 0 1 -0.06017,-0.395238 6.5941636,6.5941636 0 0 1 -0.03297,-0.271185 6.5941636,6.5941636 0 0 1 -0.02926,-0.573692 6.5941636,6.5941636 0 0 1 0.03256,-0.653234 6.5941636,6.5941636 0 0 1 0.08985,-0.598008 6.5941636,6.5941636 0 0 1 0.0082,-0.05481 6.5941636,6.5941636 0 0 1 0.162381,-0.637986 6.5941636,6.5941636 0 0 1 0.132296,-0.363091 6.5941636,6.5941636 0 0 1 0.09479,-0.259645 6.5941636,6.5941636 0 0 1 0.284785,-0.590177 6.5941636,6.5941636 0 0 1 0.344133,-0.562153 6.5941636,6.5941636 0 0 1 0.398535,-0.52506 6.5941636,6.5941636 0 0 1 0.448815,-0.482611 6.5941636,6.5941636 0 0 1 0.340424,-0.299622 6.5941636,6.5941636 0 0 1 0.157435,-0.131471 6.5941636,6.5941636 0 0 1 0.532891,-0.388231 6.5941636,6.5941636 0 0 0 -3.554666,-1.04806 z"
       id="path819-8-6" />
    <path
       inkscape:connector-curvature="0"
       style="fill:#1f3cca;fill-opacity:0.48743717;stroke:#000000;stroke-width:0.21134552;stroke-miterlimit:4;stroke-dasharray:none;stroke-dashoffset:0"
       d="m 13.503365,72.033402 a 6.5941636,6.5941636 0 0 1 0.03256,-0.653234 6.5941636,6.5941636 0 0 1 0.08985,-0.598009 6.5941636,6.5941636 0 0 0 -0.122404,1.251243 z"
       id="path4644-4-1" />
    <path
       inkscape:connector-curvature="0"
       style="fill:#4e90d3;fill-opacity:1;stroke:#000000;stroke-width:0.21134552;stroke-miterlimit:4;stroke-dasharray:none;stroke-dashoffset:0"
       d="m 20.097528,65.439238 a 6.5941636,6.5941636 0 0 0 -3.56703,1.04806 6.5941636,6.5941636 0 0 1 0.0016,8.23e-4 6.5941636,6.5941636 0 0 1 0.5366,0.382874 6.5941636,6.5941636 0 0 1 0.495387,0.43439 6.5941636,6.5941636 0 0 1 0.450051,0.481786 6.5941636,6.5941636 0 0 1 0.399359,0.524236 6.5941636,6.5941636 0 0 1 0.34537,0.561741 6.5941636,6.5941636 0 0 1 0.287258,0.593062 6.5941636,6.5941636 0 0 1 0.227087,0.619027 6.5941636,6.5941636 0 0 1 0.163617,0.638398 6.5941636,6.5941636 0 0 1 0.09933,0.651586 6.5941636,6.5941636 0 0 1 0.0338,0.65818 6.5941636,6.5941636 0 0 1 -0.03256,0.653234 6.5941636,6.5941636 0 0 1 -0.09809,0.651586 6.5941636,6.5941636 0 0 1 -0.162381,0.638809 6.5941636,6.5941636 0 0 1 -0.225851,0.619439 6.5941636,6.5941636 0 0 1 -0.286021,0.593887 6.5941636,6.5941636 0 0 1 -0.344133,0.562153 6.5941636,6.5941636 0 0 1 -0.398947,0.52506 6.5941636,6.5941636 0 0 1 -0.448815,0.482198 6.5941636,6.5941636 0 0 1 -0.494975,0.435627 6.5941636,6.5941636 0 0 1 -0.535776,0.383698 6.5941636,6.5941636 0 0 0 3.555079,1.048472 6.5941636,6.5941636 0 0 0 6.594165,-6.594163 6.5941636,6.5941636 0 0 0 -6.594165,-6.594164 z"
       id="path819-7-2-1" />
    <text
       xml:space="preserve"
       style="font-style:normal;font-variant:normal;font-weight:normal;font-stretch:normal;font-size:3.52777767px;line-height:1.25;font-family:sans-serif;-inkscape-font-specification:'sans-serif, Normal';font-variant-ligatures:normal;font-variant-caps:normal;font-variant-numeric:normal;font-feature-settings:normal;text-align:center;letter-spacing:0px;word-spacing:0px;writing-mode:lr-tb;text-anchor:middle;fill:#000000;fill-opacity:1;stroke:none;stroke-width:0.26458332"
       x="29.387648"
       y="21.171875"
       id="text4769"><tspan
         sodipodi:role="line"
         id="tspan4767"
         x="29.387648"
         y="24.293131"
         style="stroke-width:0.26458332" /></text>
    <text
       xml:space="preserve"
       style="font-style:normal;font-variant:normal;font-weight:normal;font-stretch:normal;font-size:3.52777767px;line-height:1.25;font-family:sans-serif;-inkscape-font-specification:'sans-serif, Normal';font-variant-ligatures:normal;font-variant-caps:normal;font-variant-numeric:normal;font-feature-settings:normal;text-align:center;letter-spacing:0px;word-spacing:0px;writing-mode:lr-tb;text-anchor:middle;fill:#000000;fill-opacity:1;stroke:none;stroke-width:0.26458332"
       x="34.892662"
       y="25.695642"
       id="text4773"><tspan
         sodipodi:role="line"
         id="tspan4771"
         x="34.892662"
         y="25.695642"
         style="stroke-width:0.26458332">Union</tspan></text>
    <text
       xml:space="preserve"
       style="font-style:normal;font-variant:normal;font-weight:normal;font-stretch:normal;font-size:3.52777767px;line-height:1.25;font-family:sans-serif;-inkscape-font-specification:'sans-serif, Normal';font-variant-ligatures:normal;font-variant-caps:normal;font-variant-numeric:normal;font-feature-settings:normal;text-align:start;letter-spacing:0px;word-spacing:0px;writing-mode:lr-tb;text-anchor:start;fill:#000000;fill-opacity:1;stroke:none;stroke-width:0.26458332"
       x="29.754303"
       y="43.877872"
       id="text4777"><tspan
         sodipodi:role="line"
         id="tspan4775"
         x="29.754303"
         y="43.877872"
         style="font-style:normal;font-variant:normal;font-weight:normal;font-stretch:normal;font-size:3.52777767px;font-family:sans-serif;-inkscape-font-specification:'sans-serif, Normal';font-variant-ligatures:normal;font-variant-caps:normal;font-variant-numeric:normal;font-feature-settings:normal;text-align:start;writing-mode:lr-tb;text-anchor:start;stroke-width:0.26458332">Interseccion</tspan></text>
    <text
       xml:space="preserve"
       style="font-style:normal;font-variant:normal;font-weight:normal;font-stretch:normal;font-size:3.52777767px;line-height:1.25;font-family:sans-serif;-inkscape-font-specification:'sans-serif, Normal';font-variant-ligatures:normal;font-variant-caps:normal;font-variant-numeric:normal;font-feature-settings:normal;text-align:center;letter-spacing:0px;word-spacing:0px;writing-mode:lr-tb;text-anchor:middle;fill:#000000;fill-opacity:1;stroke:none;stroke-width:0.26458332"
       x="38.742558"
       y="62.060104"
       id="text4781"><tspan
         sodipodi:role="line"
         id="tspan4779"
         x="38.742558"
         y="62.060104"
         style="stroke-width:0.26458332">Diferencia</tspan></text>
    <text
       xml:space="preserve"
       style="font-style:normal;font-variant:normal;font-weight:normal;font-stretch:normal;font-size:3.52777767px;line-height:1.25;font-family:sans-serif;-inkscape-font-specification:'sans-serif, Normal';font-variant-ligatures:normal;font-variant-caps:normal;font-variant-numeric:normal;font-feature-settings:normal;text-align:center;letter-spacing:0px;word-spacing:0px;writing-mode:lr-tb;text-anchor:middle;fill:#000000;fill-opacity:1;stroke:none;stroke-width:0.26458332"
       x="42.32201"
       y="79.558479"
       id="text4785"><tspan
         sodipodi:role="line"
         id="tspan4783"
         x="42.32201"
         y="79.558479"
         style="stroke-width:0.26458332">Complemento</tspan></text>
  </g>
</svg>
